<svg xmlns="http://www.w3.org/2000/svg" version="1.1" xmlns:xlink="http://www.w3.org/1999/xlink" xmlns:svgjs="http://svgjs.dev/svgjs" width="1440" height="560" preserveAspectRatio="none" viewBox="0 0 1440 560"><g mask="url(&quot;#SvgjsMask1013&quot;)" fill="none"><path d="M123.19006058227924 613.2401782513928L151.6206766816411 452.0021420465515-9.617359523200179 423.5715259471896-38.047975622562035 584.8095621520309z" fill="rgba(255, 255, 255, 0.2)" class="triangle-float3"></path><path d="M37.141851071279156 262.0954803114083L163.19348643053462 248.84691957298588 149.94492569211218 122.79528421373041 23.893290332856722 136.04384495215285z" fill="rgba(255, 255, 255, 0.2)" class="triangle-float3"></path><path d="M892.4867720410668 158.29239587078303L817.046748657086 46.44796173800475 705.2023145243078 121.88798512198552 780.6423379082886 233.73241925476378z" fill="rgba(255, 255, 255, 0.2)" class="triangle-float3"></path><path d="M645.794136489376 180.76583451143244L729.3762824166579 295.80678903992646 844.4172369451519 212.2246431126446 760.83509101787 97.18368858415059z" fill="rgba(255, 255, 255, 0.2)" class="triangle-float3"></path><path d="M1311.7184423720123 519.6141127987883L1195.595619581709 449.8404816137788 1125.8219883966995 565.9633044040822 1241.9448111870029 635.7369355890917z" fill="rgba(255, 255, 255, 0.2)" class="triangle-float2"></path><path d="M582.4935622082571 197.17829238943582L678.5720121213479 162.2085964666345 643.6023161985466 66.13014655354365 547.5238662854558 101.09984247634499z" fill="rgba(255, 255, 255, 0.2)" class="triangle-float3"></path><path d="M1487.5021766326668 407.58529601042943L1425.673382090624 328.44804780775667 1346.536133887951 390.2768423497995 1408.364928429994 469.41409055247226z" fill="rgba(255, 255, 255, 0.2)" class="triangle-float2"></path><path d="M1280.6658205132412 390.44176217330045L1324.0495724448144 523.9632212739982 1457.5710315455121 480.579469342425 1414.187279613939 347.0580102417273z" fill="rgba(255, 255, 255, 0.2)" class="triangle-float3"></path><path d="M682.0455164926468 6.447268251830884L557.6092382678945 54.21388011597396 605.3758501320376 178.65015834072625 729.8121283567899 130.88354647658318z" fill="rgba(255, 255, 255, 0.2)" class="triangle-float3"></path><path d="M809.8979803772362 423.64684428398607L663.4896576940844 370.35857277847754 610.2013861885757 516.7668954616295 756.6097088717277 570.0551669671379z" fill="rgba(255, 255, 255, 0.2)" class="triangle-float3"></path><path d="M283.3861230093754 237.66467171801074L427.894647913315 187.90639623782707 378.1363724331313 43.39787133388748 233.62784752919174 93.15614681407115z" fill="rgba(255, 255, 255, 0.2)" class="triangle-float1"></path><path d="M1345.5875594183879 99.68251860874899L1339.1590130984716 191.6150140456857 1431.0915085354081 198.043560365602 1437.5200548553246 106.1110649286653z" fill="rgba(255, 255, 255, 0.2)" class="triangle-float2"></path><path d="M343.35216846997866 113.76661538959698L192.66428032237573 76.19590518509852 155.09357011787728 226.88379333270146 305.7814582654802 264.4545035371999z" fill="rgba(255, 255, 255, 0.2)" class="triangle-float1"></path><path d="M51.75537755373282 73.38081998092056L154.48736123556222 176.1128036627499 257.21934491739154 73.3808199809205 154.48736123556216-29.351163700908828z" fill="rgba(255, 255, 255, 0.2)" class="triangle-float2"></path><path d="M1022.7269611076096 313.2486078427884L951.5767526919847 381.95756543494116 1020.2857102841374 453.10777385056605 1091.4359186997624 384.39881625841326z" fill="rgba(255, 255, 255, 0.2)" class="triangle-float3"></path><path d="M61.5745006888757 548.5663130509256L159.37569737359735 609.6792834392643 220.48866776193597 511.8780867545426 122.68747107721433 450.765116366204z" fill="rgba(255, 255, 255, 0.2)" class="triangle-float1"></path><path d="M95.31767600302027 249.54533256933226L161.49930276846501 355.4580750701806 267.41204526931335 289.2764483047359 201.23041850386863 183.3637058038875z" fill="rgba(255, 255, 255, 0.2)" class="triangle-float2"></path></g><defs><mask id="SvgjsMask1013"><rect width="1440" height="560" fill="#ffffff"></rect></mask><style>
                @keyframes float1 {
                    0%{transform: translate(0, 0)}
                    50%{transform: translate(-10px, 0)}
                    100%{transform: translate(0, 0)}
                }

                .triangle-float1 {
                    animation: float1 5s infinite;
                }

                @keyframes float2 {
                    0%{transform: translate(0, 0)}
                    50%{transform: translate(-5px, -5px)}
                    100%{transform: translate(0, 0)}
                }

                .triangle-float2 {
                    animation: float2 4s infinite;
                }

                @keyframes float3 {
                    0%{transform: translate(0, 0)}
                    50%{transform: translate(0, -10px)}
                    100%{transform: translate(0, 0)}
                }

                .triangle-float3 {
                    animation: float3 6s infinite;
                }
            </style></defs></svg>