<svg xmlns="http://www.w3.org/2000/svg" version="1.1" xmlns:xlink="http://www.w3.org/1999/xlink" xmlns:svgjs="http://svgjs.dev/svgjs" width="1440" height="560" preserveAspectRatio="none" viewBox="0 0 1440 560"><g mask="url(&quot;#SvgjsMask1071&quot;)" fill="none"><path d="M291.669,721.124C348.857,720.13,396.135,679.509,422.387,628.693C446.493,582.031,443.443,526.188,415.277,481.858C389.044,440.569,340.574,421.823,291.669,422.956C244.881,424.04,203.374,448.301,177.6,487.365C148.462,531.529,129.633,585.827,152.837,633.378C178.569,686.111,233.002,722.144,291.669,721.124" fill="rgba(255, 255, 255, 1)" class="triangle-float3"></path><path d="M700.52,218.588C730.784,217.065,753.607,194.178,768.399,167.732C782.769,142.041,788.496,111.708,774.906,85.596C760.278,57.491,732.162,38.948,700.52,37.31C665.718,35.508,629.102,47.07,611.478,77.134C593.695,107.47,600.944,145.458,619.677,175.217C637.138,202.955,667.785,220.235,700.52,218.588" fill="rgba(255, 255, 255, 1)" class="triangle-float2"></path><path d="M1378.166,685.489C1420.098,684.288,1460.037,663.478,1479.62,626.38C1498.103,591.365,1487.537,550.379,1467.519,516.218C1447.774,482.524,1417.175,455.107,1378.166,453.251C1335.951,451.242,1295.163,471.113,1272.761,506.95C1248.953,545.037,1243.285,593.818,1266.12,632.496C1288.632,670.628,1333.902,686.757,1378.166,685.489" fill="rgba(255, 255, 255, 1)" class="triangle-float1"></path><path d="M585.544,102.821C618.597,102.416,652.026,91.302,669.043,62.964C686.511,33.874,684.17,-3.017,666.489,-31.978C649.527,-59.762,618.083,-74.71,585.544,-73.807C554.55,-72.947,528.504,-53.955,512.026,-27.69C494.228,0.678,481.987,35.878,498.423,65.056C515.073,94.613,551.623,103.237,585.544,102.821" fill="rgba(255, 255, 255, 1)" class="triangle-float1"></path><path d="M1151.152,340.002C1208.568,340.73,1267.721,318.048,1294.459,267.232C1319.877,218.926,1297.139,163.219,1268.683,116.638C1241.778,72.596,1202.637,36.229,1151.152,32.643C1092.907,28.586,1031.178,47.814,1001.374,98.02C971.075,149.06,982.763,213.208,1014.002,263.678C1043.514,311.358,1095.082,339.291,1151.152,340.002" fill="rgba(255, 255, 255, 1)" class="triangle-float2"></path><path d="M232.967,391.043C270.555,391.698,311.618,390.092,333.322,359.396C358.057,324.412,363.805,275.284,340.006,239.657C317.919,206.592,272.729,208.96,232.967,209.161C193.736,209.36,149.017,207.739,127.79,240.732C105.413,275.513,114.785,322.113,138.496,355.999C159.135,385.494,196.973,390.415,232.967,391.043" fill="rgba(255, 255, 255, 1)" class="triangle-float3"></path><path d="M476.204,194.184C492.615,194.485,509.881,191.106,518.99,177.451C529.043,162.381,530.099,142.548,521.16,126.792C512.112,110.845,494.474,100.497,476.204,102.039C459.867,103.418,450.54,119.006,442.713,133.412C435.373,146.921,428.636,162.462,436.056,175.927C443.661,189.727,460.45,193.895,476.204,194.184" fill="rgba(255, 255, 255, 1)" class="triangle-float1"></path><path d="M983,477.361C1003.434,477.282,1015.373,456.871,1025.575,439.166C1035.754,421.5,1046.903,401.225,1037.202,383.292C1027.205,364.81,1004.013,360.372,983,360.458C962.176,360.543,939.541,365.456,929.563,383.734C919.855,401.516,929.807,421.903,939.849,439.498C950.016,457.311,962.49,477.441,983,477.361" fill="rgba(255, 255, 255, 1)" class="triangle-float2"></path><path d="M593.834,508.753C651.226,508.714,698.188,466.248,724.43,415.207C748.425,368.536,742.563,314.52,717.36,268.49C690.954,220.263,648.789,178.449,593.834,176.695C536.253,174.857,483.556,209.632,455.854,260.144C429.157,308.824,435.988,366.84,462.931,415.384C490.808,465.612,536.389,508.792,593.834,508.753" fill="rgba(255, 255, 255, 1)" class="triangle-float1"></path></g><defs><mask id="SvgjsMask1071"><rect width="1440" height="560" fill="#ffffff"></rect></mask><style>
                @keyframes float1 {
                    0%{transform: translate(0, 0)}
                    50%{transform: translate(-10px, 0)}
                    100%{transform: translate(0, 0)}
                }

                .triangle-float1 {
                    animation: float1 5s infinite;
                }

                @keyframes float2 {
                    0%{transform: translate(0, 0)}
                    50%{transform: translate(-5px, -5px)}
                    100%{transform: translate(0, 0)}
                }

                .triangle-float2 {
                    animation: float2 4s infinite;
                }

                @keyframes float3 {
                    0%{transform: translate(0, 0)}
                    50%{transform: translate(0, -10px)}
                    100%{transform: translate(0, 0)}
                }

                .triangle-float3 {
                    animation: float3 6s infinite;
                }
            </style></defs></svg>