<svg xmlns="http://www.w3.org/2000/svg" version="1.1" xmlns:xlink="http://www.w3.org/1999/xlink" xmlns:svgjs="http://svgjs.dev/svgjs" width="1440" height="560" preserveAspectRatio="none" viewBox="0 0 1440 560"><g mask="url(&quot;#SvgjsMask1015&quot;)" fill="none"><path d="M1135.731907171947 232.8339249922971L1117.3613889054732 138.32580146905406 1022.8532653822301 156.69631973552774 1041.2237836487038 251.2044432587708z" fill="rgba(255, 255, 255, 0.31)" class="triangle-float3"></path><path d="M998.0336504078326-72.34045136936058L844.2826068750289-91.21870573789923 825.4043525064903 62.532337794904436 979.155396039294 81.41059216344308z" fill="rgba(255, 255, 255, 0.31)" class="triangle-float2"></path><path d="M22.040238157838715 253.41200987563042L4.390116167822985 397.1607178583308 148.13882415052342 414.8108398483466 165.78894614053917 271.06213186564617z" fill="rgba(255, 255, 255, 0.31)" class="triangle-float3"></path><path d="M694.1538691131182 350.1296159080515L570.8799225340558 287.3184028664026 508.0687094924069 410.5923494454649 631.3426560714693 473.4035624871138z" fill="rgba(255, 255, 255, 0.31)" class="triangle-float2"></path><path d="M1061.4897189806047 477.2668987780356L1203.9745846795772 444.371675571345 1171.0793614728866 301.8868098723726 1028.594495773914 334.78203307906324z" fill="rgba(255, 255, 255, 0.31)" class="triangle-float2"></path><path d="M113.06308992277181 198.9741666933072L164.8885414763059 292.46975623438834 258.38413101738706 240.64430468085425 206.55867946385297 147.14871513977312z" fill="rgba(255, 255, 255, 0.31)" class="triangle-float1"></path><path d="M792.0687324481843 15.011850740444949L688.295448547627 2.2700936432625767 675.5536914504446 106.04337754381987 779.3269753510019 118.78513464100223z" fill="rgba(255, 255, 255, 0.31)" class="triangle-float3"></path><path d="M1093.140404649785 492.455503596613L1223.584190162913 542.5281814489765 1273.6568680152766 412.08439593584853 1143.2130825021486 362.01171808348505z" fill="rgba(255, 255, 255, 0.31)" class="triangle-float2"></path><path d="M706.21819468001 424.36244476509614L654.5900450199862 566.2096201642355 796.4372204191255 617.8377698242593 848.0653700791494 475.99059442512z" fill="rgba(255, 255, 255, 0.31)" class="triangle-float2"></path><path d="M1347.1610682264684 333.2443248644357L1194.5421913889818 341.2427412761604 1202.5406078007065 493.86161811364695 1355.1594846381931 485.8632017019223z" fill="rgba(255, 255, 255, 0.31)" class="triangle-float1"></path><path d="M71.38607512579782 144.09579406962274L-26.846310735908162 130.2901325658112-40.65197223971971 228.52251842751718 57.58041362198627 242.32817993132872z" fill="rgba(255, 255, 255, 0.31)" class="triangle-float2"></path><path d="M171.50761500389632 285.69871012501943L202.23578106964092 191.12713929689008 107.66421024151157 160.39897323114548 76.93604417576697 254.97054405927483z" fill="rgba(255, 255, 255, 0.31)" class="triangle-float1"></path><path d="M23.94695676581074 564.8603516470586L135.94808410215091 572.692233415768 143.77996587086034 460.69110607942775 31.778838534520155 452.8592243107184z" fill="rgba(255, 255, 255, 0.31)" class="triangle-float1"></path><path d="M1106.1007244005418 312.5292930212382L1011.2101423188269 341.54025534508986 1040.2211046426785 436.43083742680477 1135.1116867243934 407.4198751029531z" fill="rgba(255, 255, 255, 0.31)" class="triangle-float3"></path><path d="M178.63847664459308 215.55119973461015L159.09129449579052 316.1127341591355 259.65282892031587 335.65991630793803 279.20001106911843 235.0983818834127z" fill="rgba(255, 255, 255, 0.31)" class="triangle-float1"></path><path d="M1052.5872615479573 451.9403824966124L1128.0620839197372 303.8127032086217 979.9344046317465 228.33788083684175 904.4595822599665 376.46556012483245z" fill="rgba(255, 255, 255, 0.31)" class="triangle-float3"></path><path d="M363.0641681358171 353.4954718445814L468.17395263865245 299.9393616495117 414.61784244358273 194.82957714667634 309.5080579407474 248.38568734174606z" fill="rgba(255, 255, 255, 0.31)" class="triangle-float1"></path></g><defs><mask id="SvgjsMask1015"><rect width="1440" height="560" fill="#ffffff"></rect></mask><style>
                @keyframes float1 {
                    0%{transform: translate(0, 0)}
                    50%{transform: translate(-10px, 0)}
                    100%{transform: translate(0, 0)}
                }

                .triangle-float1 {
                    animation: float1 5s infinite;
                }

                @keyframes float2 {
                    0%{transform: translate(0, 0)}
                    50%{transform: translate(-5px, -5px)}
                    100%{transform: translate(0, 0)}
                }

                .triangle-float2 {
                    animation: float2 4s infinite;
                }

                @keyframes float3 {
                    0%{transform: translate(0, 0)}
                    50%{transform: translate(0, -10px)}
                    100%{transform: translate(0, 0)}
                }

                .triangle-float3 {
                    animation: float3 6s infinite;
                }
            </style></defs></svg>