<svg xmlns="http://www.w3.org/2000/svg" version="1.1" xmlns:xlink="http://www.w3.org/1999/xlink" xmlns:svgjs="http://svgjs.dev/svgjs" width="1440" height="560" preserveAspectRatio="none" viewBox="0 0 1440 560"><g mask="url(&quot;#SvgjsMask1042&quot;)" fill="none"><path d="M588.7213078285623 528.303339569992L611.1492155017595 386.699103527351 469.5449794591185 364.2711958541538 447.1170717859213 505.8754318967948z" fill="rgba(255, 255, 255, 0.81)" class="triangle-float3"></path><path d="M355.0478402197045 499.7527059834723L375.0201345665689 373.65260229942095 248.92003088251758 353.6803079525565 228.94773653565312 479.7804116366079z" fill="rgba(255, 255, 255, 0.81)" class="triangle-float1"></path><path d="M790.1182786208617 265.75803777477216L893.8664344008977 137.63973520625018 765.7481318323757 33.89157942621415 661.9999760523397 162.00988199473613z" fill="rgba(255, 255, 255, 0.81)" class="triangle-float2"></path><path d="M908.5179725464765 273.1106407194628L975.3171183712021 393.6194897986078 1095.825967450347 326.8203439738821 1029.0268216256213 206.31149489473714z" fill="rgba(255, 255, 255, 0.81)" class="triangle-float3"></path><path d="M162.57871471626947 575.9012078114066L154.87348891445126 487.8300738920385 66.80235499508318 495.53529969385676 74.50758079690141 583.6064336132248z" fill="rgba(255, 255, 255, 0.81)" class="triangle-float2"></path><path d="M314.0211117633236 61.07819739819807L207.86886037187085 163.5882349874226 310.3788979610954 269.74048637887535 416.5311493525481 167.23044878965078z" fill="rgba(255, 255, 255, 0.81)" class="triangle-float2"></path><path d="M1507.359182661486-69.60948708370992L1356.5416793014447-61.70547665559753 1364.4456897295572 89.11202670444388 1515.2631930895984 81.20801627633148z" fill="rgba(255, 255, 255, 0.81)" class="triangle-float1"></path><path d="M548.8757582447957 176.70511417493861L410.3475659050455 139.58659690855927 373.2290486386661 278.11478924830953 511.7572409784164 315.23330651468893z" fill="rgba(255, 255, 255, 0.81)" class="triangle-float1"></path><path d="M701.0953079823477 122.59561971547869L701.0953079823477 238.3092363465807 816.8089246134497 238.3092363465807 816.8089246134497 122.59561971547866z" fill="rgba(255, 255, 255, 0.81)" class="triangle-float3"></path><path d="M878.7872220919394 363.85611373779517L1003.7898598273102 302.8882536575621 942.8219997470771 177.88561592219125 817.8193620117063 238.85347600242434z" fill="rgba(255, 255, 255, 0.81)" class="triangle-float3"></path><path d="M129.34234891414275-62.27040690609818L118.91908758033617 86.78917473515966 267.97866922159403 97.21243606896624 278.40193055540055-51.84714557229161z" fill="rgba(255, 255, 255, 0.81)" class="triangle-float2"></path><path d="M423.31307049864785 352.20501966805125L519.9597061086387 452.28554056806786 620.0402270086553 355.638904958077 523.3935913986644 255.55838405806037z" fill="rgba(255, 255, 255, 0.81)" class="triangle-float2"></path></g><defs><mask id="SvgjsMask1042"><rect width="1440" height="560" fill="#ffffff"></rect></mask><style>
                @keyframes float1 {
                    0%{transform: translate(0, 0)}
                    50%{transform: translate(-10px, 0)}
                    100%{transform: translate(0, 0)}
                }

                .triangle-float1 {
                    animation: float1 5s infinite;
                }

                @keyframes float2 {
                    0%{transform: translate(0, 0)}
                    50%{transform: translate(-5px, -5px)}
                    100%{transform: translate(0, 0)}
                }

                .triangle-float2 {
                    animation: float2 4s infinite;
                }

                @keyframes float3 {
                    0%{transform: translate(0, 0)}
                    50%{transform: translate(0, -10px)}
                    100%{transform: translate(0, 0)}
                }

                .triangle-float3 {
                    animation: float3 6s infinite;
                }
            </style></defs></svg>