<svg xmlns="http://www.w3.org/2000/svg" version="1.1" xmlns:xlink="http://www.w3.org/1999/xlink" xmlns:svgjs="http://svgjs.dev/svgjs" width="1440" height="560" preserveAspectRatio="none" viewBox="0 0 1440 560"><g mask="url(&quot;#SvgjsMask1011&quot;)" fill="none"><path d="M1330.5174065240199 274.985123202821L1179.3988575753701 216.97614723469528 1121.3898816072442 368.09469618334515 1272.5084305558942 426.10367215147085z" fill="rgba(195, 255, 175, 0.2)" class="triangle-float3"></path><path d="M716.3766003961433 563.8746000836059L838.2351276415242 655.7015868289243 930.0621143868426 533.8430595835433 808.2035871414618 442.01607283822494z" fill="rgba(195, 255, 175, 0.2)" class="triangle-float2"></path><path d="M1431.8884675309603 31.516901997696973L1322.6219840027466 14.210791157850679 1305.3158731629003 123.47727468606428 1414.582356691114 140.78338552591057z" fill="rgba(195, 255, 175, 0.2)" class="triangle-float3"></path><path d="M1215.0482981867783 148.81238621689403L1281.4616887655388 251.0800394972609 1383.7293420459057 184.66664891850036 1317.3159514671452 82.39899563813348z" fill="rgba(195, 255, 175, 0.2)" class="triangle-float2"></path><path d="M690.4184955087221 148.57650627959347L795.0558285146725 208.98889865786344 855.4682208929424 104.35156565191309 750.8308878869921 43.93917327364312z" fill="rgba(195, 255, 175, 0.2)" class="triangle-float1"></path><path d="M1146.300285130293 295.8380793840513L1238.9628765010948 168.29896391727155 1111.423761034315 75.6363725464698 1018.7611696635133 203.17548801324955z" fill="rgba(195, 255, 175, 0.2)" class="triangle-float3"></path><path d="M1368.7177232040353 481.17262668758514L1449.6681627197643 507.475018904956 1475.9705549371351 426.52457938922703 1395.0201154214062 400.22218717185615z" fill="rgba(195, 255, 175, 0.2)" class="triangle-float1"></path><path d="M1061.3765660702184 114.71670493613162L1022.8342216624045 226.6518008164325 1134.7693175427055 265.19414522424637 1173.3116619505192 153.25904934394546z" fill="rgba(195, 255, 175, 0.2)" class="triangle-float2"></path><path d="M849.3913179151662 379.5288246077729L808.3279881228076 287.299075835179 716.0982393502137 328.3624056275376 757.1615691425723 420.59215440013145z" fill="rgba(195, 255, 175, 0.2)" class="triangle-float2"></path><path d="M646.4097352270221 424.534641063044L788.3147885341765 503.19389655808726 866.9740440292198 361.2888432509328 725.0689907220653 282.6295877558896z" fill="rgba(195, 255, 175, 0.2)" class="triangle-float1"></path><path d="M886.8929861725169 385.13322561632003L974.0925116326162 317.005489736138 905.9647757524341 229.80596427603876 818.7652502923348 297.9337001562208z" fill="rgba(195, 255, 175, 0.2)" class="triangle-float3"></path><path d="M839.9373106160042 10.158982836667647L685.31229350801-55.47544288165514 619.6778677896873 99.14957422633904 774.3028848976815 164.78399994466184z" fill="rgba(195, 255, 175, 0.2)" class="triangle-float1"></path><path d="M976.2154947608791 191.67639638180083L954.0013866155601 87.16723434612291 849.4922245798823 109.38134249144181 871.7063327252012 213.89050452711973z" fill="rgba(195, 255, 175, 0.2)" class="triangle-float2"></path><path d="M882.2136682548617 560.2863051082461L1000.6739014531369 674.6820225688485 1115.0696189137393 556.2217893705733 996.6093857154641 441.82607190997095z" fill="rgba(195, 255, 175, 0.2)" class="triangle-float2"></path><path d="M1022.8634141072971 426.6612226141322L963.3046393995528 574.0743628988532 1110.7177796842739 633.6331376065975 1170.2765543920182 486.2199973218765z" fill="rgba(195, 255, 175, 0.2)" class="triangle-float3"></path><path d="M351.68074462716197 420.0314402244838L449.2644773861732 285.7189547228901 314.9519918845795 188.13522196387885 217.36825912556827 322.44770746547255z" fill="rgba(195, 255, 175, 0.2)" class="triangle-float1"></path><path d="M118.36108087489637 111.16577972540742L206.33813288877167 196.12423129582476 291.29658445918903 108.14717928194943 203.3195324453137 23.18872771153211z" fill="rgba(195, 255, 175, 0.2)" class="triangle-float2"></path></g><defs><mask id="SvgjsMask1011"><rect width="1440" height="560" fill="#ffffff"></rect></mask><style>
                @keyframes float1 {
                    0%{transform: translate(0, 0)}
                    50%{transform: translate(-10px, 0)}
                    100%{transform: translate(0, 0)}
                }

                .triangle-float1 {
                    animation: float1 5s infinite;
                }

                @keyframes float2 {
                    0%{transform: translate(0, 0)}
                    50%{transform: translate(-5px, -5px)}
                    100%{transform: translate(0, 0)}
                }

                .triangle-float2 {
                    animation: float2 4s infinite;
                }

                @keyframes float3 {
                    0%{transform: translate(0, 0)}
                    50%{transform: translate(0, -10px)}
                    100%{transform: translate(0, 0)}
                }

                .triangle-float3 {
                    animation: float3 6s infinite;
                }
            </style></defs></svg>