<svg xmlns="http://www.w3.org/2000/svg" version="1.1" xmlns:xlink="http://www.w3.org/1999/xlink" xmlns:svgjs="http://svgjs.com/svgjs" width="1440" height="560" preserveAspectRatio="none" viewBox="0 0 1440 560"><g mask="url(&quot;#SvgjsMask1048&quot;)" fill="none"><path d="M785.9777827191288 598.4556014449244L795.4303846292702 463.27709627043316 660.251879454779 453.82449436029174 650.7992775446376 589.0029995347829z" fill="rgba(121, 121, 121, 0.25)" class="triangle-float1"></path><path d="M795.0597315700403 475.3654858985963L743.7949258550389 545.9254376411916 814.3548775976342 597.1902433561932 865.6196833126356 526.6302916135978z" fill="rgba(121, 121, 121, 0.25)" class="triangle-float3"></path><path d="M1148.432146979155 117.6218114088922L1074.6607762813005 194.014302056402 1151.0532669288102 267.78567275425655 1224.8246376266648 191.3931821067468z" fill="rgba(121, 121, 121, 0.25)" class="triangle-float3"></path><path d="M676.9641958648175 94.72933938368831L676.9641958648175-63.8710518002469 518.3638046808823-63.871051800246875 518.3638046808823 94.72933938368833z" fill="rgba(121, 121, 121, 0.25)" class="triangle-float1"></path><path d="M1011.1299541092279 72.18882566541257L902.6825726247996 169.8352865475025 1000.3290335068896 278.2826680319308 1108.7764149913178 180.63620714984086z" fill="rgba(121, 121, 121, 0.25)" class="triangle-float1"></path><path d="M408.87621196446764 439.2676112627563L313.4791539493148 449.2942460920343 323.50578877859283 544.6913041071872 418.90284679374565 534.6646692779092z" fill="rgba(121, 121, 121, 0.25)" class="triangle-float3"></path><path d="M13.49040556864028 297.3869123195658L168.89730397094516 261.50840279699145 133.0187944483708 106.10150439468657-22.388103953934053 141.98001391726092z" fill="rgba(121, 121, 121, 0.25)" class="triangle-float2"></path><path d="M-1.8230999830078822 417.5752588379056L97.5269825042024 444.1960332083191 124.14775687461585 344.8459507211088 24.79767438740558 318.22517635069534z" fill="rgba(121, 121, 121, 0.25)" class="triangle-float3"></path><path d="M1325.135277420116 69.14803190499326L1338.9398652258049 226.93519254207854 1496.72702586289 213.13060473638967 1482.9224380572011 55.343444099304364z" fill="rgba(121, 121, 121, 0.25)" class="triangle-float2"></path><path d="M1373.3046239478376 3.733987727121921L1282.976867067523 104.05312495484819 1383.296004295249 194.38088183516294 1473.623761175564 94.06174460743665z" fill="rgba(121, 121, 121, 0.25)" class="triangle-float1"></path><path d="M1148.0144969743733 432.1379542714984L1232.461411142911 403.0605498661686 1203.384006737581 318.6136356976309 1118.9370925690434 347.6910401029607z" fill="rgba(121, 121, 121, 0.25)" class="triangle-float3"></path><path d="M335.78890991995456 426.0480675421801L377.2891596515294 553.7727029297097 505.013795039059 512.2724531981348 463.51354530748415 384.54781781060524z" fill="rgba(121, 121, 121, 0.25)" class="triangle-float1"></path><path d="M37.16612852423784 189.05130480716684L128.67054155042732 131.87300154264838 71.49223828590887 40.368588516458914-20.012174740280614 97.54689178097736z" fill="rgba(121, 121, 121, 0.25)" class="triangle-float3"></path><path d="M861.8407374874836 181.7280670019115L973.8288241759454 266.1171432892647 1058.2179004632985 154.1290566008028 946.2298137748368 69.73998031344964z" fill="rgba(121, 121, 121, 0.25)" class="triangle-float2"></path><path d="M1322.084434053444 372.8408422208036L1233.139800527809 321.48863411180565 1181.787592418811 410.4332676374407 1270.732225944446 461.7854757464387z" fill="rgba(121, 121, 121, 0.25)" class="triangle-float2"></path><path d="M105.93807948362766 504.96624323024025L42.941023348334696 404.1498790689936-57.875340812911986 467.14693520428654 5.121715322380979 567.9632993655332z" fill="rgba(121, 121, 121, 0.25)" class="triangle-float2"></path><path d="M1241.2769892866727 5.708585471343397L1156.287194574203-79.28120924112622 1071.2973998617335 5.708585471343412 1156.287194574203 90.69838018381303z" fill="rgba(121, 121, 121, 0.25)" class="triangle-float3"></path></g><defs><mask id="SvgjsMask1048"><rect width="1440" height="560" fill="#ffffff"></rect></mask><style>
            @keyframes float1 {
                0%{transform: translate(0, 0)}
                50%{transform: translate(-10px, 0)}
                100%{transform: translate(0, 0)}
            }

            .triangle-float1 {
                animation: float1 5s infinite;
            }

            @keyframes float2 {
                0%{transform: translate(0, 0)}
                50%{transform: translate(-5px, -5px)}
                100%{transform: translate(0, 0)}
            }

            .triangle-float2 {
                animation: float2 4s infinite;
            }

            @keyframes float3 {
                0%{transform: translate(0, 0)}
                50%{transform: translate(0, -10px)}
                100%{transform: translate(0, 0)}
            }

            .triangle-float3 {
                animation: float3 6s infinite;
            }
        </style></defs></svg>