<svg xmlns="http://www.w3.org/2000/svg" version="1.1" xmlns:xlink="http://www.w3.org/1999/xlink" xmlns:svgjs="http://svgjs.com/svgjs" width="1440" height="560" preserveAspectRatio="none" viewBox="0 0 1440 560"><g mask="url(&quot;#SvgjsMask1051&quot;)" fill="none"><path d="M1083.477473052828 196.0308871827381L1028.2465881672426 284.41877933463167 1116.6344803191362 339.6496642202169 1171.8653652047215 251.26177206832335z" fill="rgba(121, 121, 121, 0.25)" class="triangle-float1"></path><path d="M358.6313274506508 273.5870645484645L254.589680313935 354.8733080144644 335.87592377993485 458.9149551511802 439.9175709166507 377.62871168518035z" fill="rgba(121, 121, 121, 0.25)" class="triangle-float2"></path><path d="M85.21522566215968 341.07576328025056L159.75581441849818 292.66853894047136 111.34859007871898 218.12795018413286 36.808001322380484 266.535174523912z" fill="rgba(121, 121, 121, 0.25)" class="triangle-float2"></path><path d="M24.79770190212519 221.65207543296344L119.72883990957888 240.10481938564766 138.18158386226307 145.17368137819398 43.2504458548094 126.72093742550976z" fill="rgba(121, 121, 121, 0.25)" class="triangle-float3"></path><path d="M963.6343007089514 91.35772840915007L1114.8225824813044 104.58498912219402 1128.0498431943483-46.60329265015906 976.8615614219954-59.830553363202995z" fill="rgba(121, 121, 121, 0.25)" class="triangle-float2"></path><path d="M1480.7929224581521-32.35417821043441L1320.9911428224386-43.52860720325924 1309.816713829614 116.27317243245415 1469.6184934653272 127.44760142527898z" fill="rgba(121, 121, 121, 0.25)" class="triangle-float1"></path><path d="M740.2175236135042 334.3678952688747L903.7589382306379 317.17899995127397 886.5700429130372 153.63758533414023 723.0286282959034 170.82648065174098z" fill="rgba(121, 121, 121, 0.25)" class="triangle-float1"></path><path d="M1237.791116997019 129.51532649051921L1183.0488747912655 204.8615589485721 1258.3951072493185 259.6038011543254 1313.137349455072 184.25756869627253z" fill="rgba(121, 121, 121, 0.25)" class="triangle-float3"></path><path d="M161.01426125869548 300.26546334236815L40.6503125311112 188.02426532679584-71.5908854844611 308.3882140543801 48.773063243123175 420.6294120699524z" fill="rgba(121, 121, 121, 0.25)" class="triangle-float3"></path><path d="M245.72219890865074 532.8755796425963L349.6745140932977 505.02164073752465 321.82057518822603 401.0693255528777 217.86826000357905 428.92326445794936z" fill="rgba(121, 121, 121, 0.25)" class="triangle-float2"></path><path d="M333.6020100960634 565.6658862755016L284.02342731168574 459.34427238534767 177.70181342153177 508.9228551697253 227.28039620590943 615.2444690598793z" fill="rgba(121, 121, 121, 0.25)" class="triangle-float1"></path><path d="M959.4491349810563 202.32090103993286L834.7878447906302 314.56643089477916 947.0333746454766 439.2277210852053 1071.6946648359026 326.982191230359z" fill="rgba(121, 121, 121, 0.25)" class="triangle-float1"></path><path d="M90.21798448579804 179.55741147948942L65.0306314072386 85.5569300821293-28.969849990121517 110.74428316068874-3.7824969115620775 204.74476455804887z" fill="rgba(121, 121, 121, 0.25)" class="triangle-float1"></path><path d="M1090.2577547682 105.22990395147926L965.7752266751281 67.1717758078876 927.7170985315365 191.6543039009594 1052.1996266246083 229.71243204455106z" fill="rgba(121, 121, 121, 0.25)" class="triangle-float1"></path><path d="M1157.1673698175082 226.81533380631618L1202.2259794558 338.33930615526845 1313.749951804752 293.28069651697683 1268.6913421664603 181.75672416802456z" fill="rgba(121, 121, 121, 0.25)" class="triangle-float3"></path><path d="M634.0011793110583 369.1538091054398L664.9388649041957 449.7492355310568 745.5342913298126 418.81154993791944 714.5966057366753 338.21612351230243z" fill="rgba(121, 121, 121, 0.25)" class="triangle-float3"></path><path d="M1242.5871345431449 286.7879004858563L1268.3275724242665 165.68866139917213 1147.2283333375822 139.94822351805064 1121.4878954564606 261.0474626047348z" fill="rgba(121, 121, 121, 0.25)" class="triangle-float3"></path><path d="M530.8239227598293 34.0697520349413L438.1963548496184 114.58966837545957 518.7162711901367 207.2172362856705 611.3438391003476 126.69731994515224z" fill="rgba(121, 121, 121, 0.25)" class="triangle-float3"></path><path d="M576.0915534563022 153.66023386787185L513.5260684775724 212.00349248205669 571.8693270917572 274.5689774607865 634.434812070487 216.2257188466017z" fill="rgba(121, 121, 121, 0.25)" class="triangle-float1"></path><path d="M266.4730025358259 366.33092167817534L348.03212349098544 507.59546299316696 489.296664805977 426.03634203800743 407.7375438508175 284.7718007230158z" fill="rgba(121, 121, 121, 0.25)" class="triangle-float1"></path></g><defs><mask id="SvgjsMask1051"><rect width="1440" height="560" fill="#ffffff"></rect></mask><style>
            @keyframes float1 {
                0%{transform: translate(0, 0)}
                50%{transform: translate(-10px, 0)}
                100%{transform: translate(0, 0)}
            }

            .triangle-float1 {
                animation: float1 5s infinite;
            }

            @keyframes float2 {
                0%{transform: translate(0, 0)}
                50%{transform: translate(-5px, -5px)}
                100%{transform: translate(0, 0)}
            }

            .triangle-float2 {
                animation: float2 4s infinite;
            }

            @keyframes float3 {
                0%{transform: translate(0, 0)}
                50%{transform: translate(0, -10px)}
                100%{transform: translate(0, 0)}
            }

            .triangle-float3 {
                animation: float3 6s infinite;
            }
        </style></defs></svg>